<?xml version="1.0" encoding="UTF-8" standalone="no"?>
<svg
   xmlns:dc="http://purl.org/dc/elements/1.1/"
   xmlns:cc="http://creativecommons.org/ns#"
   xmlns:rdf="http://www.w3.org/1999/02/22-rdf-syntax-ns#"
   xmlns:svg="http://www.w3.org/2000/svg"
   xmlns="http://www.w3.org/2000/svg"
   xmlns:sodipodi="http://sodipodi.sourceforge.net/DTD/sodipodi-0.dtd"
   xmlns:inkscape="http://www.inkscape.org/namespaces/inkscape"
   fill="#000000"
   height="24"
   viewBox="0 0 24 24"
   width="24"
   version="1.1"
   id="svg4669"
   sodipodi:docname="logo.svg"
   inkscape:version="0.92.2 5c3e80d, 2017-08-06">
  <metadata
     id="metadata4675">
    <rdf:RDF>
      <cc:Work
         rdf:about="">
        <dc:format>image/svg+xml</dc:format>
        <dc:type
           rdf:resource="http://purl.org/dc/dcmitype/StillImage" />
      </cc:Work>
    </rdf:RDF>
  </metadata>
  <defs
     id="defs4673" />
  <sodipodi:namedview
     pagecolor="#ffffff"
     bordercolor="#666666"
     borderopacity="1"
     objecttolerance="10"
     gridtolerance="10"
     guidetolerance="10"
     inkscape:pageopacity="0"
     inkscape:pageshadow="2"
     inkscape:window-width="1920"
     inkscape:window-height="1145"
     id="namedview4671"
     showgrid="false"
     showguides="true"
     inkscape:guide-bbox="true"
     inkscape:zoom="19.645833"
     inkscape:cx="3.664576"
     inkscape:cy="10.873939"
     inkscape:window-x="1920"
     inkscape:window-y="27"
     inkscape:window-maximized="1"
     inkscape:current-layer="svg4669">
    <sodipodi:guide
       position="7.0752916,12.012725"
       orientation="0,1"
       id="guide5268"
       inkscape:locked="false" />
    <sodipodi:guide
       position="12.012725,10.638388"
       orientation="1,0"
       id="guide5270"
       inkscape:locked="false" />
  </sodipodi:namedview>
  <rect
     style="fill:#db4d3f;fill-opacity:1"
     id="rect5220"
     width="24"
     height="24"
     x="0"
     y="0" />
  <path
     d="M0 0h24v24H0z"
     fill="none"
     id="path4665" />
  <path
     d="m 13.65,5.725 h -3.3 v 1.1 h 3.3 z m -2.2,7.15 h 1.1 v -3.3 h -1.1 z m 4.4165,-3.6355 0.781,-0.781 C 16.411,8.178 16.1525,7.914 15.872,7.683 L 15.091,8.464 C 14.2385,7.782 13.166,7.375 12,7.375 c -2.7335,0 -4.95,2.2165 -4.95,4.95 0,2.7335 2.211,4.95 4.95,4.95 2.739,0 4.95,-2.2165 4.95,-4.95 0,-1.166 -0.407,-2.2385 -1.0835,-3.0855 z M 12,16.175 c -2.1285,0 -3.85,-1.7215 -3.85,-3.85 0,-2.1285 1.7215,-3.85 3.85,-3.85 2.1285,0 3.85,1.7215 3.85,3.85 0,2.1285 -1.7215,3.85 -3.85,3.85 z"
     id="path4667"
     style="opacity:1;fill:#ffffff;fill-opacity:1;stroke-width:0.55000001"
     inkscape:connector-curvature="0" />
</svg>
