<?xml version="1.0" encoding="UTF-8" standalone="no"?>
<svg
   xmlns:dc="http://purl.org/dc/elements/1.1/"
   xmlns:cc="http://creativecommons.org/ns#"
   xmlns:rdf="http://www.w3.org/1999/02/22-rdf-syntax-ns#"
   xmlns:svg="http://www.w3.org/2000/svg"
   xmlns="http://www.w3.org/2000/svg"
   xmlns:sodipodi="http://sodipodi.sourceforge.net/DTD/sodipodi-0.dtd"
   xmlns:inkscape="http://www.inkscape.org/namespaces/inkscape"
   fill="#000000"
   height="24"
   viewBox="0 0 24 24"
   width="24"
   version="1.1"
   id="svg4669"
   sodipodi:docname="logo-source.svg"
   inkscape:version="0.92.2 5c3e80d, 2017-08-06"
   inkscape:export-filename="/home/glennsl/dev/remote/rebench/static/logo-256.png"
   inkscape:export-xdpi="1024"
   inkscape:export-ydpi="1024">
  <metadata
     id="metadata4675">
    <rdf:RDF>
      <cc:Work
         rdf:about="">
        <dc:format>image/svg+xml</dc:format>
        <dc:type
           rdf:resource="http://purl.org/dc/dcmitype/StillImage" />
        <dc:title></dc:title>
      </cc:Work>
    </rdf:RDF>
  </metadata>
  <defs
     id="defs4673" />
  <sodipodi:namedview
     pagecolor="#ffffff"
     bordercolor="#666666"
     borderopacity="1"
     objecttolerance="10"
     gridtolerance="10"
     guidetolerance="10"
     inkscape:pageopacity="0"
     inkscape:pageshadow="2"
     inkscape:window-width="1920"
     inkscape:window-height="1145"
     id="namedview4671"
     showgrid="false"
     showguides="true"
     inkscape:guide-bbox="true"
     inkscape:zoom="19.645833"
     inkscape:cx="3.664576"
     inkscape:cy="10.873939"
     inkscape:window-x="1920"
     inkscape:window-y="27"
     inkscape:window-maximized="1"
     inkscape:current-layer="svg4669">
    <sodipodi:guide
       position="7.0752916,12.012725"
       orientation="0,1"
       id="guide5268"
       inkscape:locked="false" />
    <sodipodi:guide
       position="12.012725,10.638388"
       orientation="1,0"
       id="guide5270"
       inkscape:locked="false" />
  </sodipodi:namedview>
  <rect
     style="fill:#ffffff;fill-opacity:0"
     id="rect5220"
     width="24"
     height="24"
     x="0"
     y="0" />
  <path
     d="M0 0h24v24H0z"
     fill="none"
     id="path4665" />
  <path
     d="M 15.233397,0.68576343 H 8.792054 V 2.8328775 h 6.441343 z M 10.939168,14.642005 h 2.147115 V 8.2006628 h -2.147115 z m 8.620664,-7.096212 1.52445,-1.5244511 C 20.622652,5.4738278 20.118081,4.9585205 19.570567,4.5076265 l -1.524451,1.524451 C 16.382103,4.7008667 14.288667,3.9064346 12.012725,3.9064346 c -5.335578,0 -9.662013,4.3264348 -9.662013,9.6620134 0,5.335578 4.315699,9.662013 9.662013,9.662013 5.346314,0 9.662014,-4.326435 9.662014,-9.662013 0,-2.275941 -0.794433,-4.3693773 -2.114907,-6.022655 z m -7.547107,13.537554 c -4.154666,0 -7.514899,-3.360234 -7.514899,-7.514899 0,-4.1546659 3.360233,-7.5148993 7.514899,-7.5148993 4.154665,0 7.514899,3.3602334 7.514899,7.5148993 0,4.154665 -3.360234,7.514899 -7.514899,7.514899 z"
     id="path4667"
     style="opacity:1;fill:#db4d3f;fill-opacity:1;stroke-width:1.07355702"
     inkscape:connector-curvature="0" />
</svg>
